<?xml version="1.0" standalone="no"?>
 <!DOCTYPE svg PUBLIC "-//W3C//DTD SVG 1.1//EN" 
 "http://www.w3.org/Graphics/SVG/1.1/DTD/svg11.dtd"> 
<svg xmlns="http://www.w3.org/2000/svg" version="1.1" 
    width="29.7002cm" height="21.0007cm" viewBox="0 0 116930 82680 ">
<title>SVG Picture created as peripheral-board-B.Cu.svg date 2017/11/05 14:33:51 </title>
  <desc>Picture generated by PCBNEW </desc>
<g style="fill:#000000; fill-opacity:1;stroke:#000000; stroke-opacity:1;
stroke-linecap:round; stroke-linejoin:round; "
 transform="translate(0 0) scale(1 1)">
</g>
<g style="fill:#000000; fill-opacity:0.0; 
stroke:#000000; stroke-width:-0.000393701; stroke-opacity:1; 
stroke-linecap:round; stroke-linejoin:round;">
</g>
<g style="fill:#000000; fill-opacity:1.0; 
stroke:#000000; stroke-width:0; stroke-opacity:1; 
stroke-linecap:round; stroke-linejoin:round;">
<circle cx="56043.3" cy="34065" r="300" /> 
</g>
<g style="fill:#000000; fill-opacity:1.0; 
stroke:#000000; stroke-width:196.85; stroke-opacity:1; 
stroke-linecap:round; stroke-linejoin:round;">
</g>
<g style="fill:#000000; fill-opacity:1.0; 
stroke:#000000; stroke-width:0; stroke-opacity:1; 
stroke-linecap:round; stroke-linejoin:round;">
<circle cx="55043.3" cy="34065" r="300" /> 
</g>
<g style="fill:#000000; fill-opacity:1.0; 
stroke:#000000; stroke-width:196.85; stroke-opacity:1; 
stroke-linecap:round; stroke-linejoin:round;">
</g>
<g style="fill:#000000; fill-opacity:1.0; 
stroke:#000000; stroke-width:0; stroke-opacity:1; 
stroke-linecap:round; stroke-linejoin:round;">
<circle cx="54043.3" cy="34065" r="300" /> 
</g>
<g style="fill:#000000; fill-opacity:1.0; 
stroke:#000000; stroke-width:196.85; stroke-opacity:1; 
stroke-linecap:round; stroke-linejoin:round;">
</g>
<g style="fill:#000000; fill-opacity:1.0; 
stroke:#000000; stroke-width:0; stroke-opacity:1; 
stroke-linecap:round; stroke-linejoin:round;">
<circle cx="53043.3" cy="34065" r="300" /> 
</g>
<g style="fill:#000000; fill-opacity:1.0; 
stroke:#000000; stroke-width:196.85; stroke-opacity:1; 
stroke-linecap:round; stroke-linejoin:round;">
</g>
<g style="fill:#000000; fill-opacity:1.0; 
stroke:#000000; stroke-width:0; stroke-opacity:1; 
stroke-linecap:round; stroke-linejoin:round;">
<circle cx="52043.3" cy="34065" r="300" /> 
</g>
<g style="fill:#000000; fill-opacity:1.0; 
stroke:#000000; stroke-width:196.85; stroke-opacity:1; 
stroke-linecap:round; stroke-linejoin:round;">
</g>
<g style="fill:#000000; fill-opacity:1.0; 
stroke:#000000; stroke-width:0; stroke-opacity:1; 
stroke-linecap:round; stroke-linejoin:round;">
<circle cx="51043.3" cy="34065" r="300" /> 
</g>
<g style="fill:#000000; fill-opacity:1.0; 
stroke:#000000; stroke-width:196.85; stroke-opacity:1; 
stroke-linecap:round; stroke-linejoin:round;">
</g>
<g style="fill:#000000; fill-opacity:1.0; 
stroke:#000000; stroke-width:0; stroke-opacity:1; 
stroke-linecap:round; stroke-linejoin:round;">
<circle cx="54043.3" cy="35315" r="300" /> 
</g>
<g style="fill:#000000; fill-opacity:1.0; 
stroke:#000000; stroke-width:196.85; stroke-opacity:1; 
stroke-linecap:round; stroke-linejoin:round;">
</g>
<g style="fill:#000000; fill-opacity:1.0; 
stroke:#000000; stroke-width:0; stroke-opacity:1; 
stroke-linecap:round; stroke-linejoin:round;">
<circle cx="53043.3" cy="35315" r="300" /> 
</g>
<g style="fill:#000000; fill-opacity:1.0; 
stroke:#000000; stroke-width:196.85; stroke-opacity:1; 
stroke-linecap:round; stroke-linejoin:round;">
</g>
<g style="fill:#000000; fill-opacity:1.0; 
stroke:#000000; stroke-width:0; stroke-opacity:1; 
stroke-linecap:round; stroke-linejoin:round;">
<circle cx="45472.4" cy="24803.1" r="472.441" /> 
</g>
<g style="fill:#000000; fill-opacity:1.0; 
stroke:#000000; stroke-width:196.85; stroke-opacity:1; 
stroke-linecap:round; stroke-linejoin:round;">
</g>
<g style="fill:#000000; fill-opacity:1.0; 
stroke:#000000; stroke-width:0; stroke-opacity:1; 
stroke-linecap:round; stroke-linejoin:round;">
<circle cx="46850.4" cy="24803.1" r="472.441" /> 
</g>
<g style="fill:#000000; fill-opacity:1.0; 
stroke:#000000; stroke-width:196.85; stroke-opacity:1; 
stroke-linecap:round; stroke-linejoin:round;">
</g>
<g style="fill:#000000; fill-opacity:1.0; 
stroke:#000000; stroke-width:0; stroke-opacity:1; 
stroke-linecap:round; stroke-linejoin:round;">
<polyline style="fill-rule:evenodd;"
points="43622,25275
43622,24330
44566,24330
44566,25275
43622,25275
" /> 
<polyline style="fill-rule:evenodd;"
points="61387,27135
60659,27135
60659,26407
61387,26407
61387,27135
" /> 
<circle cx="61023.6" cy="25787.4" r="364.173" /> 
</g>
<g style="fill:#000000; fill-opacity:1.0; 
stroke:#000000; stroke-width:196.85; stroke-opacity:1; 
stroke-linecap:round; stroke-linejoin:round;">
</g>
<g style="fill:#000000; fill-opacity:1.0; 
stroke:#000000; stroke-width:0; stroke-opacity:1; 
stroke-linecap:round; stroke-linejoin:round;">
<circle cx="61023.6" cy="24803.1" r="364.173" /> 
</g>
<g style="fill:#000000; fill-opacity:1.0; 
stroke:#000000; stroke-width:196.85; stroke-opacity:1; 
stroke-linecap:round; stroke-linejoin:round;">
</g>
<g style="fill:#000000; fill-opacity:1.0; 
stroke:#000000; stroke-width:0; stroke-opacity:1; 
stroke-linecap:round; stroke-linejoin:round;">
<circle cx="61023.6" cy="23818.9" r="364.173" /> 
</g>
<g style="fill:#000000; fill-opacity:1.0; 
stroke:#000000; stroke-width:196.85; stroke-opacity:1; 
stroke-linecap:round; stroke-linejoin:round;">
</g>
<g style="fill:#000000; fill-opacity:1.0; 
stroke:#000000; stroke-width:0; stroke-opacity:1; 
stroke-linecap:round; stroke-linejoin:round;">
<polyline style="fill-rule:evenodd;"
points="60856,28966
61584,28966
61584,29694
60856,29694
60856,28966
" /> 
<circle cx="61220.5" cy="30315" r="364.173" /> 
</g>
<g style="fill:#000000; fill-opacity:1.0; 
stroke:#000000; stroke-width:196.85; stroke-opacity:1; 
stroke-linecap:round; stroke-linejoin:round;">
</g>
<g style="fill:#000000; fill-opacity:1.0; 
stroke:#000000; stroke-width:0; stroke-opacity:1; 
stroke-linecap:round; stroke-linejoin:round;">
<circle cx="61220.5" cy="31299.2" r="364.173" /> 
</g>
<g style="fill:#000000; fill-opacity:1.0; 
stroke:#000000; stroke-width:196.85; stroke-opacity:1; 
stroke-linecap:round; stroke-linejoin:round;">
</g>
<g style="fill:#000000; fill-opacity:1.0; 
stroke:#000000; stroke-width:0; stroke-opacity:1; 
stroke-linecap:round; stroke-linejoin:round;">
<circle cx="61220.5" cy="32283.5" r="364.173" /> 
</g>
<g style="fill:#000000; fill-opacity:1.0; 
stroke:#000000; stroke-width:196.85; stroke-opacity:1; 
stroke-linecap:round; stroke-linejoin:round;">
</g>
<g style="fill:#000000; fill-opacity:1.0; 
stroke:#000000; stroke-width:0; stroke-opacity:1; 
stroke-linecap:round; stroke-linejoin:round;">
<circle cx="61220.5" cy="33267.7" r="364.173" /> 
</g>
<g style="fill:#000000; fill-opacity:1.0; 
stroke:#000000; stroke-width:196.85; stroke-opacity:1; 
stroke-linecap:round; stroke-linejoin:round;">
</g>
<g style="fill:#000000; fill-opacity:1.0; 
stroke:#000000; stroke-width:0; stroke-opacity:1; 
stroke-linecap:round; stroke-linejoin:round;">
<polyline style="fill-rule:evenodd;"
points="48454,30344
49183,30344
49183,31072
48454,31072
48454,30344
" /> 
<circle cx="48818.9" cy="31692.9" r="364.173" /> 
</g>
<g style="fill:#000000; fill-opacity:1.0; 
stroke:#000000; stroke-width:196.85; stroke-opacity:1; 
stroke-linecap:round; stroke-linejoin:round;">
</g>
<g style="fill:#000000; fill-opacity:1.0; 
stroke:#000000; stroke-width:0; stroke-opacity:1; 
stroke-linecap:round; stroke-linejoin:round;">
<circle cx="48818.9" cy="32677.2" r="364.173" /> 
</g>
<g style="fill:#000000; fill-opacity:1.0; 
stroke:#000000; stroke-width:196.85; stroke-opacity:1; 
stroke-linecap:round; stroke-linejoin:round;">
</g>
<g style="fill:#000000; fill-opacity:1.0; 
stroke:#000000; stroke-width:0; stroke-opacity:1; 
stroke-linecap:round; stroke-linejoin:round;">
<circle cx="48818.9" cy="33661.4" r="364.173" /> 
</g>
<g style="fill:#000000; fill-opacity:1.0; 
stroke:#000000; stroke-width:196.85; stroke-opacity:1; 
stroke-linecap:round; stroke-linejoin:round;">
</g>
<g style="fill:#000000; fill-opacity:1.0; 
stroke:#000000; stroke-width:0; stroke-opacity:1; 
stroke-linecap:round; stroke-linejoin:round;">
<polyline style="fill-rule:evenodd;"
points="68179,25708
66801,25708
66801,24921
68179,24921
68179,25708
" /> 
<polyline style="fill-rule:evenodd;"
points="68179,23905
66801,23905
66801,23118
68179,23118
68179,23905
" /> 
<polyline style="fill-rule:evenodd;"
points="71781,25787
69025,25787
69025,23031
71781,23031
71781,25787
" /> 
<polyline style="fill-rule:evenodd;"
points="68179,30826
66801,30826
66801,30039
68179,30039
68179,30826
" /> 
<polyline style="fill-rule:evenodd;"
points="68179,29023
66801,29023
66801,28236
68179,28236
68179,29023
" /> 
<polyline style="fill-rule:evenodd;"
points="71781,30905
69025,30905
69025,28149
71781,28149
71781,30905
" /> 
<polyline style="fill-rule:evenodd;"
points="52952,24271
52952,24940
52165,24940
52165,24271
52952,24271
" /> 
<polyline style="fill-rule:evenodd;"
points="51377,24271
51377,24940
50590,24940
50590,24271
51377,24271
" /> 
<polyline style="fill-rule:evenodd;"
points="56496,24271
56496,24940
55708,24940
55708,24271
56496,24271
" /> 
<polyline style="fill-rule:evenodd;"
points="54921,24271
54921,24940
54133,24940
54133,24271
54921,24271
" /> 
<polyline style="fill-rule:evenodd;"
points="52952,27814
52952,28484
52165,28484
52165,27814
52952,27814
" /> 
<polyline style="fill-rule:evenodd;"
points="51377,27814
51377,28484
50590,28484
50590,27814
51377,27814
" /> 
<polyline style="fill-rule:evenodd;"
points="56496,26240
56496,26909
55708,26909
55708,26240
56496,26240
" /> 
<polyline style="fill-rule:evenodd;"
points="54921,26240
54921,26909
54133,26909
54133,26240
54921,26240
" /> 
<polyline style="fill-rule:evenodd;"
points="65748,23090
65748,23759
64960,23759
64960,23090
65748,23090
" /> 
<polyline style="fill-rule:evenodd;"
points="64173,23090
64173,23759
63385,23759
63385,23090
64173,23090
" /> 
<polyline style="fill-rule:evenodd;"
points="65748,25059
65748,25728
64960,25728
64960,25059
65748,25059
" /> 
<polyline style="fill-rule:evenodd;"
points="64173,25059
64173,25728
63385,25728
63385,25059
64173,25059
" /> 
<polyline style="fill-rule:evenodd;"
points="65216,30118
65885,30118
65885,30905
65216,30905
65216,30118
" /> 
<polyline style="fill-rule:evenodd;"
points="65216,31692
65885,31692
65885,32480
65216,32480
65216,31692
" /> 
<polyline style="fill-rule:evenodd;"
points="65354,27106
65354,26437
66141,26437
66141,27106
65354,27106
" /> 
<polyline style="fill-rule:evenodd;"
points="66929,27106
66929,26437
67716,26437
67716,27106
66929,27106
" /> 
<circle cx="58464.6" cy="28149.6" r="393.5" /> 
</g>
<g style="fill:#000000; fill-opacity:1.0; 
stroke:#000000; stroke-width:196.85; stroke-opacity:1; 
stroke-linecap:round; stroke-linejoin:round;">
</g>
<g style="fill:#000000; fill-opacity:1.0; 
stroke:#000000; stroke-width:0; stroke-opacity:1; 
stroke-linecap:round; stroke-linejoin:round;">
<circle cx="54464.6" cy="28149.6" r="393.5" /> 
</g>
<g style="fill:#000000; fill-opacity:1.0; 
stroke:#000000; stroke-width:196.85; stroke-opacity:1; 
stroke-linecap:round; stroke-linejoin:round;">
</g>
<g style="fill:#000000; fill-opacity:1.0; 
stroke:#000000; stroke-width:0; stroke-opacity:1; 
stroke-linecap:round; stroke-linejoin:round;">
<circle cx="73031.5" cy="23228.3" r="393.5" /> 
</g>
<g style="fill:#000000; fill-opacity:1.0; 
stroke:#000000; stroke-width:196.85; stroke-opacity:1; 
stroke-linecap:round; stroke-linejoin:round;">
</g>
<g style="fill:#000000; fill-opacity:1.0; 
stroke:#000000; stroke-width:0; stroke-opacity:1; 
stroke-linecap:round; stroke-linejoin:round;">
<circle cx="77031.5" cy="23228.3" r="393.5" /> 
</g>
<g style="fill:#000000; fill-opacity:1.0; 
stroke:#000000; stroke-width:196.85; stroke-opacity:1; 
stroke-linecap:round; stroke-linejoin:round;">
</g>
<g style="fill:#000000; fill-opacity:1.0; 
stroke:#000000; stroke-width:0; stroke-opacity:1; 
stroke-linecap:round; stroke-linejoin:round;">
<circle cx="63779.5" cy="26968.5" r="393.5" /> 
</g>
<g style="fill:#000000; fill-opacity:1.0; 
stroke:#000000; stroke-width:196.85; stroke-opacity:1; 
stroke-linecap:round; stroke-linejoin:round;">
</g>
<g style="fill:#000000; fill-opacity:1.0; 
stroke:#000000; stroke-width:0; stroke-opacity:1; 
stroke-linecap:round; stroke-linejoin:round;">
<circle cx="63779.5" cy="30968.5" r="393.5" /> 
</g>
<g style="fill:#000000; fill-opacity:1.0; 
stroke:#000000; stroke-width:196.85; stroke-opacity:1; 
stroke-linecap:round; stroke-linejoin:round;">
</g>
<g style="fill:#000000; fill-opacity:1.0; 
stroke:#000000; stroke-width:0; stroke-opacity:1; 
stroke-linecap:round; stroke-linejoin:round;">
<circle cx="79133.9" cy="26378" r="472.441" /> 
</g>
<g style="fill:#000000; fill-opacity:1.0; 
stroke:#000000; stroke-width:196.85; stroke-opacity:1; 
stroke-linecap:round; stroke-linejoin:round;">
</g>
<g style="fill:#000000; fill-opacity:1.0; 
stroke:#000000; stroke-width:0; stroke-opacity:1; 
stroke-linecap:round; stroke-linejoin:round;">
<polyline style="fill-rule:evenodd;"
points="80984,25905
80984,26850
80039,26850
80039,25905
80984,25905
" /> 
<circle cx="76378" cy="26378" r="472.441" /> 
</g>
<g style="fill:#000000; fill-opacity:1.0; 
stroke:#000000; stroke-width:196.85; stroke-opacity:1; 
stroke-linecap:round; stroke-linejoin:round;">
</g>
<g style="fill:#000000; fill-opacity:1.0; 
stroke:#000000; stroke-width:0; stroke-opacity:1; 
stroke-linecap:round; stroke-linejoin:round;">
<polyline style="fill-rule:evenodd;"
points="78228,25905
78228,26850
77283,26850
77283,25905
78228,25905
" /> 
</g>
<g style="fill:#000000; fill-opacity:1.0; 
stroke:#000000; stroke-width:393.701; stroke-opacity:1; 
stroke-linecap:round; stroke-linejoin:round;">
</g>
<g style="fill:#000000; fill-opacity:0.0; 
stroke:#000000; stroke-width:393.701; stroke-opacity:1; 
stroke-linecap:round; stroke-linejoin:round;">
<path d="M65354 25393
L67411 25393
" />
<path d="M67411 25393
L67490 25314
" />
<path d="M73622 25196
L74212 24606
" />
<path d="M74212 24606
L74212 23622
" />
<path d="M72047 26771
L73622 25196
" />
<path d="M72637 21850
L73818 21850
" />
<path d="M74212 22244
L74212 23425
" />
<path d="M73818 21850
L74212 22244
" />
<path d="M56102 26574
L56102 29330
" />
<path d="M56102 24606
L56102 26574
" />
<path d="M67519 21850
L67519 23482
" />
<path d="M67519 23482
L67490 23511
" />
<path d="M67322 26771
L72047 26771
" />
<path d="M72637 21850
L67519 21850
" />
<path d="M67519 21850
L66673 21850
" />
<path d="M74212 23622
L74212 23425
" />
<path d="M61220 29330
L63976 29330
" />
<path d="M64677 28629
L67490 28629
" />
<path d="M63976 29330
L64677 28629
" />
<path d="M67490 28629
L67490 26938
" />
<path d="M67490 26938
L67322 26771
" />
<path d="M56102 29330
L61220 29330
" />
<path d="M44094 24803
L44094 23228
" />
<path d="M44094 23228
L45472 21850
" />
<path d="M45472 21850
L66673 21850
" />
<path d="M49606 30708
L50787 29527
" />
<path d="M50984 29330
L56102 29330
" />
<path d="M50787 29527
L50984 29330
" />
<path d="M52043 34064
L52043 34767
" />
<path d="M49606 30708
L48818 30708
" />
<path d="M50000 31102
L49606 30708
" />
<path d="M50000 34448
L50000 31102
" />
<path d="M50590 35039
L50000 34448
" />
<path d="M51771 35039
L50590 35039
" />
<path d="M52043 34767
L51771 35039
" />
<path d="M67039 28629
L67490 28629
" />
<path d="M65354 23425
L67403 23425
" />
<path d="M67403 23425
L67490 23511
" />
<path d="M67403 28543
L67490 28629
" />
<path d="M65551 30511
L67411 30511
" />
<path d="M67411 30511
L67490 30433
" />
<path d="M67411 30511
L67490 30433
" />
<path d="M80511 27362
L80511 26377
" />
<path d="M80511 25590
L80511 26377
" />
<path d="M77755 26377
L77755 27165
" />
<path d="M77755 27165
L77755 28740
" />
<path d="M78937 22637
L76771 20472
" />
<path d="M76771 20472
L75590 20472
" />
<path d="M45472 24803
L45472 23818
" />
<path d="M49606 24606
L50984 24606
" />
<path d="M48228 23228
L49606 24606
" />
<path d="M46062 23228
L48228 23228
" />
<path d="M45472 23818
L46062 23228
" />
<path d="M78937 22637
L80511 24212
" />
<path d="M80511 24212
L80511 25590
" />
<path d="M80511 25590
L80511 27165
" />
<path d="M76574 28740
L77755 28740
" />
<path d="M77755 28740
L79921 28740
" />
<path d="M79921 28740
L80511 28149
" />
<path d="M80511 28149
L80511 27362
" />
<path d="M80511 27362
L80511 27165
" />
<path d="M61220 30314
L62007 30314
" />
<path d="M62007 30314
L62598 30905
" />
<path d="M45472 24803
L45472 25590
" />
<path d="M42716 25787
L42716 22637
" />
<path d="M42716 22637
L44881 20472
" />
<path d="M44881 20472
L75590 20472
" />
<path d="M45472 25590
L44881 26181
" />
<path d="M44881 26181
L43110 26181
" />
<path d="M43110 26181
L42716 25787
" />
<path d="M61220 30314
L53149 30314
" />
<path d="M50984 32480
L50984 34005
" />
<path d="M53149 30314
L50984 32480
" />
<path d="M50984 34005
L51043 34064
" />
<path d="M62598 30905
L62598 32283
" />
<path d="M62598 32283
L63582 33267
" />
<path d="M63582 33267
L71850 33267
" />
<path d="M71850 33267
L72834 32283
" />
<path d="M72834 32283
L72834 29527
" />
<path d="M72834 29527
L73622 28740
" />
<path d="M73622 28740
L76574 28740
" />
<path d="M50984 28149
L50787 28149
" />
<path d="M50787 28149
L49606 29330
" />
<path d="M49606 29330
L47834 29330
" />
<path d="M46850 24803
L46850 25590
" />
<path d="M46850 25590
L47834 26574
" />
<path d="M48818 31692
L48425 31692
" />
<path d="M47834 31102
L47834 29330
" />
<path d="M47834 29330
L47834 27755
" />
<path d="M47834 27755
L47834 26574
" />
<path d="M48425 31692
L47834 31102
" />
<path d="M61023 26771
L62007 26771
" />
<path d="M62007 26771
L63385 25393
" />
<path d="M63385 25393
L63779 25393
" />
<path d="M63779 25393
L63779 23425
" />
<path d="M61023 25787
L60236 25787
" />
<path d="M60236 25787
L59842 26181
" />
<path d="M65614 26905
L65748 26771
" />
<path d="M59842 26181
L59842 27559
" />
<path d="M59842 27559
L60236 27952
" />
<path d="M62795 27952
L63779 26968
" />
<path d="M60236 27952
L62795 27952
" />
<path d="M65748 26771
L63976 26771
" />
<path d="M63976 26771
L63779 26968
" />
<path d="M61023 24803
L60039 24803
" />
<path d="M59055 27559
L58464 28149
" />
<path d="M59055 25787
L59055 27559
" />
<path d="M60039 24803
L59055 25787
" />
<path d="M52559 24606
L54527 24606
" />
<path d="M54527 24606
L54527 23818
" />
<path d="M58858 23818
L61023 23818
" />
<path d="M58267 23228
L58858 23818
" />
<path d="M55118 23228
L58267 23228
" />
<path d="M54527 23818
L55118 23228
" />
<path d="M53043 34064
L53043 32783
" />
<path d="M54527 31299
L61220 31299
" />
<path d="M53043 32783
L54527 31299
" />
<path d="M54043 34064
L54043 33358
" />
<path d="M55118 32283
L61220 32283
" />
<path d="M54043 33358
L55118 32283
" />
<path d="M55043 34064
L55043 33736
" />
<path d="M55511 33267
L61220 33267
" />
<path d="M55043 33736
L55511 33267
" />
<path d="M54043 35314
L54043 35523
" />
<path d="M54043 35523
L52952 36614
" />
<path d="M52952 36614
L49803 36614
" />
<path d="M49803 36614
L47834 34645
" />
<path d="M47834 34645
L47834 33267
" />
<path d="M47834 33267
L48425 32677
" />
<path d="M48425 32677
L48818 32677
" />
<path d="M48818 33661
L48818 34448
" />
<path d="M52531 35826
L53043 35314
" />
<path d="M50196 35826
L52531 35826
" />
<path d="M48818 34448
L50196 35826
" />
<path d="M54527 26574
L54527 28086
" />
<path d="M54527 28086
L54464 28149
" />
<path d="M52559 28149
L54464 28149
" />
<path d="M70403 24409
L71850 24409
" />
<path d="M71850 24409
L73031 23228
" />
<path d="M63779 30968
L63779 31692
" />
<path d="M63779 31692
L64173 32086
" />
<path d="M64173 32086
L65551 32086
" />
<path d="M77031 23228
L77031 23291
" />
<path d="M77031 23291
L79133 25393
" />
<path d="M79133 25393
L79133 26377
" />
<path d="M73425 27165
L74212 26377
" />
<path d="M74212 26377
L76377 26377
" />
<path d="M72834 27755
L73425 27165
" />
<path d="M70403 29527
L71062 29527
" />
<path d="M71062 29527
L72440 28149
" />
<path d="M72440 28149
L72834 27755
" />
<path d="M70403 29527
L71456 29527
" />
<path d="M70403 29527
L70669 29527
" />
</g>
<g style="fill:#FFFFFF; fill-opacity:0.0; 
stroke:#FFFFFF; stroke-width:393.701; stroke-opacity:1; 
stroke-linecap:round; stroke-linejoin:round;">
</g>
<g style="fill:#FFFFFF; fill-opacity:1.0; 
stroke:#FFFFFF; stroke-width:0; stroke-opacity:1; 
stroke-linecap:round; stroke-linejoin:round;">
<circle cx="56043.3" cy="34065" r="150" /> 
</g>
<g style="fill:#FFFFFF; fill-opacity:1.0; 
stroke:#FFFFFF; stroke-width:196.85; stroke-opacity:1; 
stroke-linecap:round; stroke-linejoin:round;">
</g>
<g style="fill:#FFFFFF; fill-opacity:1.0; 
stroke:#FFFFFF; stroke-width:0; stroke-opacity:1; 
stroke-linecap:round; stroke-linejoin:round;">
<circle cx="55043.3" cy="34065" r="150" /> 
</g>
<g style="fill:#FFFFFF; fill-opacity:1.0; 
stroke:#FFFFFF; stroke-width:196.85; stroke-opacity:1; 
stroke-linecap:round; stroke-linejoin:round;">
</g>
<g style="fill:#FFFFFF; fill-opacity:1.0; 
stroke:#FFFFFF; stroke-width:0; stroke-opacity:1; 
stroke-linecap:round; stroke-linejoin:round;">
<circle cx="54043.3" cy="34065" r="150" /> 
</g>
<g style="fill:#FFFFFF; fill-opacity:1.0; 
stroke:#FFFFFF; stroke-width:196.85; stroke-opacity:1; 
stroke-linecap:round; stroke-linejoin:round;">
</g>
<g style="fill:#FFFFFF; fill-opacity:1.0; 
stroke:#FFFFFF; stroke-width:0; stroke-opacity:1; 
stroke-linecap:round; stroke-linejoin:round;">
<circle cx="53043.3" cy="34065" r="150" /> 
</g>
<g style="fill:#FFFFFF; fill-opacity:1.0; 
stroke:#FFFFFF; stroke-width:196.85; stroke-opacity:1; 
stroke-linecap:round; stroke-linejoin:round;">
</g>
<g style="fill:#FFFFFF; fill-opacity:1.0; 
stroke:#FFFFFF; stroke-width:0; stroke-opacity:1; 
stroke-linecap:round; stroke-linejoin:round;">
<circle cx="52043.3" cy="34065" r="150" /> 
</g>
<g style="fill:#FFFFFF; fill-opacity:1.0; 
stroke:#FFFFFF; stroke-width:196.85; stroke-opacity:1; 
stroke-linecap:round; stroke-linejoin:round;">
</g>
<g style="fill:#FFFFFF; fill-opacity:1.0; 
stroke:#FFFFFF; stroke-width:0; stroke-opacity:1; 
stroke-linecap:round; stroke-linejoin:round;">
<circle cx="51043.3" cy="34065" r="150" /> 
</g>
<g style="fill:#FFFFFF; fill-opacity:1.0; 
stroke:#FFFFFF; stroke-width:196.85; stroke-opacity:1; 
stroke-linecap:round; stroke-linejoin:round;">
</g>
<g style="fill:#FFFFFF; fill-opacity:1.0; 
stroke:#FFFFFF; stroke-width:0; stroke-opacity:1; 
stroke-linecap:round; stroke-linejoin:round;">
<circle cx="54043.3" cy="35315" r="150" /> 
</g>
<g style="fill:#FFFFFF; fill-opacity:1.0; 
stroke:#FFFFFF; stroke-width:196.85; stroke-opacity:1; 
stroke-linecap:round; stroke-linejoin:round;">
</g>
<g style="fill:#FFFFFF; fill-opacity:1.0; 
stroke:#FFFFFF; stroke-width:0; stroke-opacity:1; 
stroke-linecap:round; stroke-linejoin:round;">
<circle cx="53043.3" cy="35315" r="150" /> 
</g>
<g style="fill:#FFFFFF; fill-opacity:1.0; 
stroke:#FFFFFF; stroke-width:196.85; stroke-opacity:1; 
stroke-linecap:round; stroke-linejoin:round;">
</g>
<g style="fill:#FFFFFF; fill-opacity:1.0; 
stroke:#FFFFFF; stroke-width:0; stroke-opacity:1; 
stroke-linecap:round; stroke-linejoin:round;">
<circle cx="45472.4" cy="24803.1" r="236.22" /> 
</g>
<g style="fill:#FFFFFF; fill-opacity:1.0; 
stroke:#FFFFFF; stroke-width:196.85; stroke-opacity:1; 
stroke-linecap:round; stroke-linejoin:round;">
</g>
<g style="fill:#FFFFFF; fill-opacity:1.0; 
stroke:#FFFFFF; stroke-width:0; stroke-opacity:1; 
stroke-linecap:round; stroke-linejoin:round;">
<circle cx="46850.4" cy="24803.1" r="236.22" /> 
</g>
<g style="fill:#FFFFFF; fill-opacity:1.0; 
stroke:#FFFFFF; stroke-width:196.85; stroke-opacity:1; 
stroke-linecap:round; stroke-linejoin:round;">
</g>
<g style="fill:#FFFFFF; fill-opacity:1.0; 
stroke:#FFFFFF; stroke-width:0; stroke-opacity:1; 
stroke-linecap:round; stroke-linejoin:round;">
<circle cx="44094.5" cy="24803.1" r="236.22" /> 
</g>
<g style="fill:#FFFFFF; fill-opacity:1.0; 
stroke:#FFFFFF; stroke-width:196.85; stroke-opacity:1; 
stroke-linecap:round; stroke-linejoin:round;">
</g>
<g style="fill:#FFFFFF; fill-opacity:1.0; 
stroke:#FFFFFF; stroke-width:0; stroke-opacity:1; 
stroke-linecap:round; stroke-linejoin:round;">
<circle cx="61023.6" cy="26771.7" r="177.165" /> 
</g>
<g style="fill:#FFFFFF; fill-opacity:1.0; 
stroke:#FFFFFF; stroke-width:196.85; stroke-opacity:1; 
stroke-linecap:round; stroke-linejoin:round;">
</g>
<g style="fill:#FFFFFF; fill-opacity:1.0; 
stroke:#FFFFFF; stroke-width:0; stroke-opacity:1; 
stroke-linecap:round; stroke-linejoin:round;">
<circle cx="61023.6" cy="25787.4" r="177.165" /> 
</g>
<g style="fill:#FFFFFF; fill-opacity:1.0; 
stroke:#FFFFFF; stroke-width:196.85; stroke-opacity:1; 
stroke-linecap:round; stroke-linejoin:round;">
</g>
<g style="fill:#FFFFFF; fill-opacity:1.0; 
stroke:#FFFFFF; stroke-width:0; stroke-opacity:1; 
stroke-linecap:round; stroke-linejoin:round;">
<circle cx="61023.6" cy="24803.1" r="177.165" /> 
</g>
<g style="fill:#FFFFFF; fill-opacity:1.0; 
stroke:#FFFFFF; stroke-width:196.85; stroke-opacity:1; 
stroke-linecap:round; stroke-linejoin:round;">
</g>
<g style="fill:#FFFFFF; fill-opacity:1.0; 
stroke:#FFFFFF; stroke-width:0; stroke-opacity:1; 
stroke-linecap:round; stroke-linejoin:round;">
<circle cx="61023.6" cy="23818.9" r="177.165" /> 
</g>
<g style="fill:#FFFFFF; fill-opacity:1.0; 
stroke:#FFFFFF; stroke-width:196.85; stroke-opacity:1; 
stroke-linecap:round; stroke-linejoin:round;">
</g>
<g style="fill:#FFFFFF; fill-opacity:1.0; 
stroke:#FFFFFF; stroke-width:0; stroke-opacity:1; 
stroke-linecap:round; stroke-linejoin:round;">
<circle cx="61220.5" cy="29330.7" r="177.165" /> 
</g>
<g style="fill:#FFFFFF; fill-opacity:1.0; 
stroke:#FFFFFF; stroke-width:196.85; stroke-opacity:1; 
stroke-linecap:round; stroke-linejoin:round;">
</g>
<g style="fill:#FFFFFF; fill-opacity:1.0; 
stroke:#FFFFFF; stroke-width:0; stroke-opacity:1; 
stroke-linecap:round; stroke-linejoin:round;">
<circle cx="61220.5" cy="30315" r="177.165" /> 
</g>
<g style="fill:#FFFFFF; fill-opacity:1.0; 
stroke:#FFFFFF; stroke-width:196.85; stroke-opacity:1; 
stroke-linecap:round; stroke-linejoin:round;">
</g>
<g style="fill:#FFFFFF; fill-opacity:1.0; 
stroke:#FFFFFF; stroke-width:0; stroke-opacity:1; 
stroke-linecap:round; stroke-linejoin:round;">
<circle cx="61220.5" cy="31299.2" r="177.165" /> 
</g>
<g style="fill:#FFFFFF; fill-opacity:1.0; 
stroke:#FFFFFF; stroke-width:196.85; stroke-opacity:1; 
stroke-linecap:round; stroke-linejoin:round;">
</g>
<g style="fill:#FFFFFF; fill-opacity:1.0; 
stroke:#FFFFFF; stroke-width:0; stroke-opacity:1; 
stroke-linecap:round; stroke-linejoin:round;">
<circle cx="61220.5" cy="32283.5" r="177.165" /> 
</g>
<g style="fill:#FFFFFF; fill-opacity:1.0; 
stroke:#FFFFFF; stroke-width:196.85; stroke-opacity:1; 
stroke-linecap:round; stroke-linejoin:round;">
</g>
<g style="fill:#FFFFFF; fill-opacity:1.0; 
stroke:#FFFFFF; stroke-width:0; stroke-opacity:1; 
stroke-linecap:round; stroke-linejoin:round;">
<circle cx="61220.5" cy="33267.7" r="177.165" /> 
</g>
<g style="fill:#FFFFFF; fill-opacity:1.0; 
stroke:#FFFFFF; stroke-width:196.85; stroke-opacity:1; 
stroke-linecap:round; stroke-linejoin:round;">
</g>
<g style="fill:#FFFFFF; fill-opacity:1.0; 
stroke:#FFFFFF; stroke-width:0; stroke-opacity:1; 
stroke-linecap:round; stroke-linejoin:round;">
<circle cx="48818.9" cy="30708.7" r="177.165" /> 
</g>
<g style="fill:#FFFFFF; fill-opacity:1.0; 
stroke:#FFFFFF; stroke-width:196.85; stroke-opacity:1; 
stroke-linecap:round; stroke-linejoin:round;">
</g>
<g style="fill:#FFFFFF; fill-opacity:1.0; 
stroke:#FFFFFF; stroke-width:0; stroke-opacity:1; 
stroke-linecap:round; stroke-linejoin:round;">
<circle cx="48818.9" cy="31692.9" r="177.165" /> 
</g>
<g style="fill:#FFFFFF; fill-opacity:1.0; 
stroke:#FFFFFF; stroke-width:196.85; stroke-opacity:1; 
stroke-linecap:round; stroke-linejoin:round;">
</g>
<g style="fill:#FFFFFF; fill-opacity:1.0; 
stroke:#FFFFFF; stroke-width:0; stroke-opacity:1; 
stroke-linecap:round; stroke-linejoin:round;">
<circle cx="48818.9" cy="32677.2" r="177.165" /> 
</g>
<g style="fill:#FFFFFF; fill-opacity:1.0; 
stroke:#FFFFFF; stroke-width:196.85; stroke-opacity:1; 
stroke-linecap:round; stroke-linejoin:round;">
</g>
<g style="fill:#FFFFFF; fill-opacity:1.0; 
stroke:#FFFFFF; stroke-width:0; stroke-opacity:1; 
stroke-linecap:round; stroke-linejoin:round;">
<circle cx="48818.9" cy="33661.4" r="177.165" /> 
</g>
<g style="fill:#FFFFFF; fill-opacity:1.0; 
stroke:#FFFFFF; stroke-width:196.85; stroke-opacity:1; 
stroke-linecap:round; stroke-linejoin:round;">
</g>
<g style="fill:#FFFFFF; fill-opacity:1.0; 
stroke:#FFFFFF; stroke-width:0; stroke-opacity:1; 
stroke-linecap:round; stroke-linejoin:round;">
<circle cx="58464.6" cy="28149.6" r="157.5" /> 
</g>
<g style="fill:#FFFFFF; fill-opacity:1.0; 
stroke:#FFFFFF; stroke-width:196.85; stroke-opacity:1; 
stroke-linecap:round; stroke-linejoin:round;">
</g>
<g style="fill:#FFFFFF; fill-opacity:1.0; 
stroke:#FFFFFF; stroke-width:0; stroke-opacity:1; 
stroke-linecap:round; stroke-linejoin:round;">
<circle cx="54464.6" cy="28149.6" r="157.5" /> 
</g>
<g style="fill:#FFFFFF; fill-opacity:1.0; 
stroke:#FFFFFF; stroke-width:196.85; stroke-opacity:1; 
stroke-linecap:round; stroke-linejoin:round;">
</g>
<g style="fill:#FFFFFF; fill-opacity:1.0; 
stroke:#FFFFFF; stroke-width:0; stroke-opacity:1; 
stroke-linecap:round; stroke-linejoin:round;">
<circle cx="73031.5" cy="23228.3" r="157.5" /> 
</g>
<g style="fill:#FFFFFF; fill-opacity:1.0; 
stroke:#FFFFFF; stroke-width:196.85; stroke-opacity:1; 
stroke-linecap:round; stroke-linejoin:round;">
</g>
<g style="fill:#FFFFFF; fill-opacity:1.0; 
stroke:#FFFFFF; stroke-width:0; stroke-opacity:1; 
stroke-linecap:round; stroke-linejoin:round;">
<circle cx="77031.5" cy="23228.3" r="157.5" /> 
</g>
<g style="fill:#FFFFFF; fill-opacity:1.0; 
stroke:#FFFFFF; stroke-width:196.85; stroke-opacity:1; 
stroke-linecap:round; stroke-linejoin:round;">
</g>
<g style="fill:#FFFFFF; fill-opacity:1.0; 
stroke:#FFFFFF; stroke-width:0; stroke-opacity:1; 
stroke-linecap:round; stroke-linejoin:round;">
<circle cx="63779.5" cy="26968.5" r="157.5" /> 
</g>
<g style="fill:#FFFFFF; fill-opacity:1.0; 
stroke:#FFFFFF; stroke-width:196.85; stroke-opacity:1; 
stroke-linecap:round; stroke-linejoin:round;">
</g>
<g style="fill:#FFFFFF; fill-opacity:1.0; 
stroke:#FFFFFF; stroke-width:0; stroke-opacity:1; 
stroke-linecap:round; stroke-linejoin:round;">
<circle cx="63779.5" cy="30968.5" r="157.5" /> 
</g>
<g style="fill:#FFFFFF; fill-opacity:1.0; 
stroke:#FFFFFF; stroke-width:196.85; stroke-opacity:1; 
stroke-linecap:round; stroke-linejoin:round;">
</g>
<g style="fill:#FFFFFF; fill-opacity:1.0; 
stroke:#FFFFFF; stroke-width:0; stroke-opacity:1; 
stroke-linecap:round; stroke-linejoin:round;">
<circle cx="79133.9" cy="26378" r="236.22" /> 
</g>
<g style="fill:#FFFFFF; fill-opacity:1.0; 
stroke:#FFFFFF; stroke-width:196.85; stroke-opacity:1; 
stroke-linecap:round; stroke-linejoin:round;">
</g>
<g style="fill:#FFFFFF; fill-opacity:1.0; 
stroke:#FFFFFF; stroke-width:0; stroke-opacity:1; 
stroke-linecap:round; stroke-linejoin:round;">
<circle cx="80511.8" cy="26378" r="236.22" /> 
</g>
<g style="fill:#FFFFFF; fill-opacity:1.0; 
stroke:#FFFFFF; stroke-width:196.85; stroke-opacity:1; 
stroke-linecap:round; stroke-linejoin:round;">
</g>
<g style="fill:#FFFFFF; fill-opacity:1.0; 
stroke:#FFFFFF; stroke-width:0; stroke-opacity:1; 
stroke-linecap:round; stroke-linejoin:round;">
<circle cx="76378" cy="26378" r="236.22" /> 
</g>
<g style="fill:#FFFFFF; fill-opacity:1.0; 
stroke:#FFFFFF; stroke-width:196.85; stroke-opacity:1; 
stroke-linecap:round; stroke-linejoin:round;">
</g>
<g style="fill:#FFFFFF; fill-opacity:1.0; 
stroke:#FFFFFF; stroke-width:0; stroke-opacity:1; 
stroke-linecap:round; stroke-linejoin:round;">
<circle cx="77755.9" cy="26378" r="236.22" /> 
</g>
<g style="fill:#FFFFFF; fill-opacity:1.0; 
stroke:#FFFFFF; stroke-width:196.85; stroke-opacity:1; 
stroke-linecap:round; stroke-linejoin:round;">
</g>
<g style="fill:#000000; fill-opacity:1.0; 
stroke:#000000; stroke-width:196.85; stroke-opacity:1; 
stroke-linecap:round; stroke-linejoin:round;">
</g> 
</svg>
