<?xml version="1.0" standalone="no"?>
 <!DOCTYPE svg PUBLIC "-//W3C//DTD SVG 1.1//EN" 
 "http://www.w3.org/Graphics/SVG/1.1/DTD/svg11.dtd"> 
<svg xmlns="http://www.w3.org/2000/svg" version="1.1" 
    width="29.7002cm" height="21.0007cm" viewBox="0 0 116930 82680 ">
<title>SVG Picture created as peripheral-board-F.SilkS.svg date 2017/11/05 15:17:25 </title>
  <desc>Picture generated by PCBNEW </desc>
<g style="fill:#000000; fill-opacity:1;stroke:#000000; stroke-opacity:1;
stroke-linecap:round; stroke-linejoin:round; "
 transform="translate(0 0) scale(1 1)">
</g>
<g style="fill:#000000; fill-opacity:0.0; 
stroke:#000000; stroke-width:-0.000393701; stroke-opacity:1; 
stroke-linecap:round; stroke-linejoin:round;">
</g>
<g style="fill:#000000; fill-opacity:0.0; 
stroke:#000000; stroke-width:59.0551; stroke-opacity:1; 
stroke-linecap:round; stroke-linejoin:round;">
<path d="M55511 31889
L55511 33070
" />
<path d="M55511 33070
L56299 33070
" />
<path d="M56299 33070
L56299 31889
" />
<path d="M56299 31889
L55511 31889
" />
<path d="M50787 31889
L51574 31889
" />
<path d="M51574 31889
L51574 33070
" />
<path d="M51574 33070
L50787 33070
" />
<path d="M50787 33070
L50787 31889
" />
<path d="M51968 26771
L50787 26771
" />
<path d="M50787 26771
L50787 27165
" />
<path d="M50787 27165
L51968 27165
" />
<path d="M51968 27165
L51968 26771
" />
<path d="M51968 28346
L51968 27952
" />
<path d="M51968 27952
L50787 27952
" />
<path d="M50787 27952
L50787 28346
" />
<path d="M50787 28346
L51968 28346
" />
<path d="M55118 27952
L56299 27952
" />
<path d="M56299 27952
L56299 28346
" />
<path d="M56299 28346
L55118 28346
" />
<path d="M55118 28346
L55118 27952
" />
<path d="M55118 26771
L56299 26771
" />
<path d="M56299 26771
L56299 27165
" />
<path d="M56299 27165
L55118 27165
" />
<path d="M55118 27165
L55118 26771
" />
<path d="M54330 27559
L54330 27952
" />
<path d="M53937 27952
L53937 27559
" />
<path d="M53543 27559
L53543 27952
" />
<path d="M53149 27952
L53149 27559
" />
<path d="M52755 27559
L52755 27952
" />
<path d="M52755 29133
L52755 29527
" />
<path d="M53149 29133
L53149 29527
" />
<path d="M53543 29527
L53543 29133
" />
<path d="M53937 29133
L53937 29527
" />
<path d="M54330 29527
L54330 29133
" />
<path d="M54724 29921
L55118 29921
" />
<path d="M55118 30314
L54724 30314
" />
<path d="M54724 30708
L55118 30708
" />
<path d="M55118 31102
L54724 31102
" />
<path d="M54724 31496
L55118 31496
" />
<path d="M54330 32283
L54330 31889
" />
<path d="M53937 31889
L53937 32283
" />
<path d="M53543 32283
L53543 31889
" />
<path d="M53149 31889
L53149 32283
" />
<path d="M52755 31889
L52755 32283
" />
<path d="M52362 31496
L51968 31496
" />
<path d="M51968 31102
L52362 31102
" />
<path d="M52362 30708
L51968 30708
" />
<path d="M52362 30314
L51968 30314
" />
<path d="M52362 29921
L51968 29921
" />
<path d="M52362 29527
L54724 29527
" />
<path d="M54724 29527
L54724 31889
" />
<path d="M54724 31889
L52362 31889
" />
<path d="M52362 31889
L52362 29527
" />
<path d="M52362 25984
L52362 27559
" />
<path d="M52362 27559
L54724 27559
" />
<path d="M54724 27559
L54724 25984
" />
<path d="M50393 34645
L50393 36220
" />
<path d="M50393 36220
L56692 36220
" />
<path d="M56692 36220
L56692 34645
" />
<path d="M50393 25984
L56692 25984
" />
<path d="M56692 25984
L56692 34645
" />
<path d="M50393 34645
L50393 25984
" />
<path d="M44763 26417
L44763 26574
" />
<path d="M46181 26417
L46181 26574
" />
<path d="M43385 25984
L47559 25984
" />
<path d="M43385 26417
L47559 26417
" />
<path d="M43385 23582
L43385 26574
" />
<path d="M47559 26574
L47559 23582
" />
<path d="M47559 23582
L43385 23582
" />
</g>
<g style="fill:#000000; fill-opacity:0.0; 
stroke:#000000; stroke-width:47.2441; stroke-opacity:1; 
stroke-linecap:round; stroke-linejoin:round;">
<path d="M60334 27814
L61948 27814
" />
<path d="M61948 27814
L61948 22775
" />
<path d="M61948 22775
L60334 22775
" />
<path d="M60334 22775
L60334 27814
" />
<path d="M61023 27814
L61023 27618
" />
<path d="M61023 27618
L60531 27618
" />
<path d="M60531 27618
L60531 22972
" />
<path d="M60531 22972
L61023 22972
" />
<path d="M61023 22972
L61023 22775
" />
<path d="M61358 27814
L61358 27421
" />
<path d="M61358 27421
L61948 27421
" />
<path d="M61358 22775
L61358 23169
" />
<path d="M61358 23169
L61948 23169
" />
<path d="M61082 27933
L62066 27933
" />
<path d="M62066 27933
L62066 26948
" />
<path d="M61909 28287
L60295 28287
" />
<path d="M60295 28287
L60295 34311
" />
<path d="M60295 34311
L61909 34311
" />
<path d="M61909 34311
L61909 28287
" />
<path d="M61220 28287
L61220 28484
" />
<path d="M61220 28484
L61712 28484
" />
<path d="M61712 28484
L61712 34114
" />
<path d="M61712 34114
L61220 34114
" />
<path d="M61220 34114
L61220 34311
" />
<path d="M60885 28287
L60885 28681
" />
<path d="M60885 28681
L60295 28681
" />
<path d="M60885 34311
L60885 33917
" />
<path d="M60885 33917
L60295 33917
" />
<path d="M61161 28169
L60177 28169
" />
<path d="M60177 28169
L60177 29153
" />
<path d="M49507 29665
L47893 29665
" />
<path d="M47893 29665
L47893 34704
" />
<path d="M47893 34704
L49507 34704
" />
<path d="M49507 34704
L49507 29665
" />
<path d="M48818 29665
L48818 29862
" />
<path d="M48818 29862
L49311 29862
" />
<path d="M49311 29862
L49311 34507
" />
<path d="M49311 34507
L48818 34507
" />
<path d="M48818 34507
L48818 34704
" />
<path d="M48484 29665
L48484 30059
" />
<path d="M48484 30059
L47893 30059
" />
<path d="M48484 34704
L48484 34311
" />
<path d="M48484 34311
L47893 34311
" />
<path d="M48759 29547
L47775 29547
" />
<path d="M47775 29547
L47775 30531
" />
</g>
<g style="fill:#000000; fill-opacity:0.0; 
stroke:#000000; stroke-width:59.0551; stroke-opacity:1; 
stroke-linecap:round; stroke-linejoin:round;">
<path d="M79822 24763
L79822 24606
" />
<path d="M81200 25196
L78444 25196
" />
<path d="M81200 24763
L78444 24763
" />
<path d="M81200 27598
L81200 24606
" />
<path d="M78444 24606
L78444 27598
" />
<path d="M78444 27598
L81200 27598
" />
<path d="M77066 24763
L77066 24606
" />
<path d="M78444 25196
L75688 25196
" />
<path d="M78444 24763
L75688 24763
" />
<path d="M78444 27598
L78444 24606
" />
<path d="M75688 24606
L75688 27598
" />
<path d="M75688 27598
L78444 27598
" />
<path d="M55980 36792
L55980 36398
L56111 36679
L56242 36398
L56242 36792
" />
<path d="M56636 36792
L56411 36792
" />
<path d="M56524 36792
L56524 36398
L56486 36454
L56449 36492
L56411 36511
" />
<path d="M45341 22894
L45341 23175
L45322 23232
L45284 23269
L45228 23288
L45191 23288
" />
<path d="M45734 23288
L45509 23288
" />
<path d="M45622 23288
L45622 22894
L45584 22950
L45547 22988
L45509 23007
" />
<path d="M59626 25426
L59908 25426
L59964 25445
L60001 25482
L60020 25538
L60020 25576
" />
<path d="M59664 25257
L59645 25239
L59626 25201
L59626 25107
L59645 25070
L59664 25051
L59701 25032
L59739 25032
L59795 25051
L60020 25276
L60020 25032
" />
<path d="M62185 31430
L62467 31430
L62523 31449
L62560 31486
L62579 31542
L62579 31580
" />
<path d="M62185 31280
L62185 31036
L62335 31167
L62335 31111
L62354 31074
L62373 31055
L62410 31036
L62504 31036
L62542 31055
L62560 31074
L62579 31111
L62579 31224
L62560 31261
L62542 31280
" />
<path d="M49784 32316
L50065 32316
L50121 32335
L50159 32372
L50178 32428
L50178 32466
" />
<path d="M49915 31960
L50178 31960
" />
<path d="M49765 32053
L50046 32147
L50046 31903
" />
<path d="M57152 27343
L57152 27624
L57133 27680
L57095 27718
L57039 27737
L57002 27737
" />
<path d="M57339 27737
L57339 27343
L57489 27343
L57527 27362
L57545 27380
L57564 27418
L57564 27474
L57545 27512
L57527 27530
L57489 27549
L57339 27549
" />
<path d="M57939 27737
L57714 27737
" />
<path d="M57827 27737
L57827 27343
L57789 27399
L57752 27437
L57714 27455
" />
<path d="M74868 22225
L74868 22506
L74850 22562
L74812 22600
L74756 22619
L74718 22619
" />
<path d="M75056 22619
L75056 22225
L75206 22225
L75243 22244
L75262 22262
L75281 22300
L75281 22356
L75262 22394
L75243 22412
L75206 22431
L75056 22431
" />
<path d="M75431 22262
L75449 22244
L75487 22225
L75581 22225
L75618 22244
L75637 22262
L75656 22300
L75656 22337
L75637 22394
L75412 22619
L75656 22619
" />
<path d="M64351 28083
L64632 28083
L64688 28102
L64726 28140
L64745 28196
L64745 28233
" />
<path d="M64745 27896
L64351 27896
L64351 27746
L64370 27709
L64388 27690
L64426 27671
L64482 27671
L64520 27690
L64538 27709
L64557 27746
L64557 27896
" />
<path d="M64351 27540
L64351 27296
L64501 27427
L64501 27371
L64520 27334
L64538 27315
L64576 27296
L64670 27296
L64707 27315
L64726 27334
L64745 27371
L64745 27484
L64726 27521
L64707 27540
" />
<path d="M81477 27296
L81758 27296
L81814 27315
L81852 27352
L81871 27409
L81871 27446
" />
<path d="M81477 26921
L81477 27109
L81664 27127
L81646 27109
L81627 27071
L81627 26977
L81646 26940
L81664 26921
L81702 26902
L81796 26902
L81833 26921
L81852 26940
L81871 26977
L81871 27071
L81852 27109
L81833 27127
" />
<path d="M74981 27296
L75262 27296
L75318 27315
L75356 27352
L75374 27409
L75374 27446
" />
<path d="M74981 26940
L74981 27015
L75000 27052
L75018 27071
L75074 27109
L75149 27127
L75299 27127
L75337 27109
L75356 27090
L75374 27052
L75374 26977
L75356 26940
L75337 26921
L75299 26902
L75206 26902
L75168 26921
L75149 26940
L75131 26977
L75131 27052
L75149 27090
L75168 27109
L75206 27127
" />
</g> 
</svg>
