<?xml version="1.0" standalone="no"?>
 <!DOCTYPE svg PUBLIC "-//W3C//DTD SVG 1.1//EN" 
 "http://www.w3.org/Graphics/SVG/1.1/DTD/svg11.dtd"> 
<svg xmlns="http://www.w3.org/2000/svg" version="1.1" 
    width="29.7002cm" height="21.0007cm" viewBox="0 0 116930 82680 ">
<title>SVG Picture created as peripheral-board-B.SilkS.svg date 2017/11/05 14:33:51 </title>
  <desc>Picture generated by PCBNEW </desc>
<g style="fill:#000000; fill-opacity:1;stroke:#000000; stroke-opacity:1;
stroke-linecap:round; stroke-linejoin:round; "
 transform="translate(0 0) scale(1 1)">
</g>
<g style="fill:#000000; fill-opacity:0.0; 
stroke:#000000; stroke-width:-0.000393701; stroke-opacity:1; 
stroke-linecap:round; stroke-linejoin:round;">
</g>
<g style="fill:#000000; fill-opacity:0.0; 
stroke:#000000; stroke-width:47.2441; stroke-opacity:1; 
stroke-linecap:round; stroke-linejoin:round;">
<path d="M68395 25610
L68395 25748
" />
<path d="M68395 25748
L68986 25748
" />
<path d="M68395 23779
L68395 25039
" />
<path d="M68986 23070
L68395 23070
" />
<path d="M68395 23070
L68395 23228
" />
<path d="M68395 30728
L68395 30866
" />
<path d="M68395 30866
L68986 30866
" />
<path d="M68395 28897
L68395 30157
" />
<path d="M68986 28188
L68395 28188
" />
<path d="M68395 28188
L68395 28346
" />
<path d="M51377 25027
L52165 25027
" />
<path d="M52165 24185
L51377 24185
" />
<path d="M54921 25027
L55708 25027
" />
<path d="M55708 24185
L54921 24185
" />
<path d="M51377 28570
L52165 28570
" />
<path d="M52165 27728
L51377 27728
" />
<path d="M54921 26996
L55708 26996
" />
<path d="M55708 26153
L54921 26153
" />
<path d="M64173 23846
L64960 23846
" />
<path d="M64960 23003
L64173 23003
" />
<path d="M64173 25814
L64960 25814
" />
<path d="M64960 24972
L64173 24972
" />
<path d="M65972 31692
L65972 30905
" />
<path d="M65129 30905
L65129 31692
" />
<path d="M66929 26350
L66141 26350
" />
<path d="M66141 27192
L66929 27192
" />
</g>
<g style="fill:#000000; fill-opacity:0.0; 
stroke:#000000; stroke-width:59.0551; stroke-opacity:1; 
stroke-linecap:round; stroke-linejoin:round;">
<path d="M69102 26416
L69139 26397
L69177 26360
L69233 26303
L69271 26285
L69308 26285
" />
<path d="M69289 26378
L69327 26360
L69364 26322
L69383 26247
L69383 26116
L69364 26041
L69327 26003
L69289 25985
L69214 25985
L69177 26003
L69139 26041
L69121 26116
L69121 26247
L69139 26322
L69177 26360
L69214 26378
L69289 26378
" />
<path d="M68746 26378
L68971 26378
" />
<path d="M68858 26378
L68858 25985
L68896 26041
L68933 26078
L68971 26097
" />
<path d="M69102 31534
L69139 31515
L69177 31478
L69233 31422
L69271 31403
L69308 31403
" />
<path d="M69289 31497
L69327 31478
L69364 31440
L69383 31365
L69383 31234
L69364 31159
L69327 31122
L69289 31103
L69214 31103
L69177 31122
L69139 31159
L69121 31234
L69121 31365
L69139 31440
L69177 31478
L69214 31497
L69289 31497
" />
<path d="M68971 31140
L68952 31122
L68914 31103
L68821 31103
L68783 31122
L68764 31140
L68746 31178
L68746 31215
L68764 31272
L68989 31497
L68746 31497
" />
<path d="M51837 24056
L51968 23868
" />
<path d="M52062 24056
L52062 23662
L51912 23662
L51874 23681
L51856 23699
L51837 23737
L51837 23793
L51856 23831
L51874 23849
L51912 23868
L52062 23868
" />
<path d="M51462 24056
L51687 24056
" />
<path d="M51574 24056
L51574 23662
L51612 23718
L51649 23756
L51687 23774
" />
<path d="M55380 24056
L55511 23868
" />
<path d="M55605 24056
L55605 23662
L55455 23662
L55418 23681
L55399 23699
L55380 23737
L55380 23793
L55399 23831
L55418 23849
L55455 23868
L55605 23868
" />
<path d="M55230 23699
L55211 23681
L55174 23662
L55080 23662
L55043 23681
L55024 23699
L55005 23737
L55005 23774
L55024 23831
L55249 24056
L55005 24056
" />
<path d="M51837 27599
L51968 27411
" />
<path d="M52062 27599
L52062 27205
L51912 27205
L51874 27224
L51856 27243
L51837 27280
L51837 27336
L51856 27374
L51874 27393
L51912 27411
L52062 27411
" />
<path d="M51706 27205
L51462 27205
L51593 27355
L51537 27355
L51499 27374
L51481 27393
L51462 27430
L51462 27524
L51481 27561
L51499 27580
L51537 27599
L51649 27599
L51687 27580
L51706 27561
" />
<path d="M55380 26024
L55511 25837
" />
<path d="M55605 26024
L55605 25630
L55455 25630
L55418 25649
L55399 25668
L55380 25705
L55380 25762
L55399 25799
L55418 25818
L55455 25837
L55605 25837
" />
<path d="M55043 25762
L55043 26024
" />
<path d="M55136 25612
L55230 25893
L54986 25893
" />
<path d="M64632 22874
L64763 22687
" />
<path d="M64857 22874
L64857 22481
L64707 22481
L64670 22500
L64651 22518
L64632 22556
L64632 22612
L64651 22649
L64670 22668
L64707 22687
L64857 22687
" />
<path d="M64276 22481
L64463 22481
L64482 22668
L64463 22649
L64426 22631
L64332 22631
L64295 22649
L64276 22668
L64257 22706
L64257 22799
L64276 22837
L64295 22856
L64332 22874
L64426 22874
L64463 22856
L64482 22837
" />
<path d="M64632 24843
L64763 24655
" />
<path d="M64857 24843
L64857 24449
L64707 24449
L64670 24468
L64651 24487
L64632 24524
L64632 24580
L64651 24618
L64670 24637
L64707 24655
L64857 24655
" />
<path d="M64295 24449
L64370 24449
L64407 24468
L64426 24487
L64463 24543
L64482 24618
L64482 24768
L64463 24805
L64445 24824
L64407 24843
L64332 24843
L64295 24824
L64276 24805
L64257 24768
L64257 24674
L64276 24637
L64295 24618
L64332 24599
L64407 24599
L64445 24618
L64463 24637
L64482 24674
" />
<path d="M65000 31233
L64813 31102
" />
<path d="M65000 31008
L64607 31008
L64607 31158
L64625 31196
L64644 31214
L64682 31233
L64738 31233
L64775 31214
L64794 31196
L64813 31158
L64813 31008
" />
<path d="M64607 31364
L64607 31627
L65000 31458
" />
<path d="M66601 27678
L66732 27490
" />
<path d="M66826 27678
L66826 27284
L66676 27284
L66638 27303
L66619 27321
L66601 27359
L66601 27415
L66619 27453
L66638 27471
L66676 27490
L66826 27490
" />
<path d="M66376 27453
L66413 27434
L66432 27415
L66451 27378
L66451 27359
L66432 27321
L66413 27303
L66376 27284
L66301 27284
L66263 27303
L66244 27321
L66226 27359
L66226 27378
L66244 27415
L66263 27434
L66301 27453
L66376 27453
L66413 27471
L66432 27490
L66451 27528
L66451 27603
L66432 27640
L66413 27659
L66376 27678
L66301 27678
L66263 27659
L66244 27640
L66226 27603
L66226 27528
L66244 27490
L66263 27471
L66301 27453
" />
</g> 
</svg>
