<?xml version="1.0" standalone="no"?>
 <!DOCTYPE svg PUBLIC "-//W3C//DTD SVG 1.1//EN" 
 "http://www.w3.org/Graphics/SVG/1.1/DTD/svg11.dtd"> 
<svg xmlns="http://www.w3.org/2000/svg" version="1.1" 
    width="29.7002cm" height="21.0007cm" viewBox="0 0 116930 82680 ">
<title>SVG Picture created as peripheral-board-F.SilkS.svg date 2017/11/05 18:29:05 </title>
  <desc>Picture generated by PCBNEW </desc>
<g style="fill:#000000; fill-opacity:1;stroke:#000000; stroke-opacity:1;
stroke-linecap:round; stroke-linejoin:round; "
 transform="translate(0 0) scale(1 1)">
</g>
<g style="fill:#000000; fill-opacity:0.0; 
stroke:#000000; stroke-width:-0.000393701; stroke-opacity:1; 
stroke-linecap:round; stroke-linejoin:round;">
</g>
<g style="fill:#000000; fill-opacity:0.0; 
stroke:#000000; stroke-width:59.0551; stroke-opacity:1; 
stroke-linecap:round; stroke-linejoin:round;">
<path d="M55511 31889
L55511 33070
" />
<path d="M55511 33070
L56299 33070
" />
<path d="M56299 33070
L56299 31889
" />
<path d="M56299 31889
L55511 31889
" />
<path d="M50787 31889
L51574 31889
" />
<path d="M51574 31889
L51574 33070
" />
<path d="M51574 33070
L50787 33070
" />
<path d="M50787 33070
L50787 31889
" />
<path d="M51968 26771
L50787 26771
" />
<path d="M50787 26771
L50787 27165
" />
<path d="M50787 27165
L51968 27165
" />
<path d="M51968 27165
L51968 26771
" />
<path d="M51968 28346
L51968 27952
" />
<path d="M51968 27952
L50787 27952
" />
<path d="M50787 27952
L50787 28346
" />
<path d="M50787 28346
L51968 28346
" />
<path d="M55118 27952
L56299 27952
" />
<path d="M56299 27952
L56299 28346
" />
<path d="M56299 28346
L55118 28346
" />
<path d="M55118 28346
L55118 27952
" />
<path d="M55118 26771
L56299 26771
" />
<path d="M56299 26771
L56299 27165
" />
<path d="M56299 27165
L55118 27165
" />
<path d="M55118 27165
L55118 26771
" />
<path d="M54330 27559
L54330 27952
" />
<path d="M53937 27952
L53937 27559
" />
<path d="M53543 27559
L53543 27952
" />
<path d="M53149 27952
L53149 27559
" />
<path d="M52755 27559
L52755 27952
" />
<path d="M52755 29133
L52755 29527
" />
<path d="M53149 29133
L53149 29527
" />
<path d="M53543 29527
L53543 29133
" />
<path d="M53937 29133
L53937 29527
" />
<path d="M54330 29527
L54330 29133
" />
<path d="M54724 29921
L55118 29921
" />
<path d="M55118 30314
L54724 30314
" />
<path d="M54724 30708
L55118 30708
" />
<path d="M55118 31102
L54724 31102
" />
<path d="M54724 31496
L55118 31496
" />
<path d="M54330 32283
L54330 31889
" />
<path d="M53937 31889
L53937 32283
" />
<path d="M53543 32283
L53543 31889
" />
<path d="M53149 31889
L53149 32283
" />
<path d="M52755 31889
L52755 32283
" />
<path d="M52362 31496
L51968 31496
" />
<path d="M51968 31102
L52362 31102
" />
<path d="M52362 30708
L51968 30708
" />
<path d="M52362 30314
L51968 30314
" />
<path d="M52362 29921
L51968 29921
" />
<path d="M52362 29527
L54724 29527
" />
<path d="M54724 29527
L54724 31889
" />
<path d="M54724 31889
L52362 31889
" />
<path d="M52362 31889
L52362 29527
" />
<path d="M52362 25984
L52362 27559
" />
<path d="M52362 27559
L54724 27559
" />
<path d="M54724 27559
L54724 25984
" />
<path d="M50393 34645
L50393 36220
" />
<path d="M50393 36220
L56692 36220
" />
<path d="M56692 36220
L56692 34645
" />
<path d="M50393 25984
L56692 25984
" />
<path d="M56692 25984
L56692 34645
" />
<path d="M50393 34645
L50393 25984
" />
<path d="M44763 26417
L44763 26574
" />
<path d="M46181 26417
L46181 26574
" />
<path d="M43385 25984
L47559 25984
" />
<path d="M43385 26417
L47559 26417
" />
<path d="M43385 23582
L43385 26574
" />
<path d="M47559 26574
L47559 23582
" />
<path d="M47559 23582
L43385 23582
" />
</g>
<g style="fill:#000000; fill-opacity:0.0; 
stroke:#000000; stroke-width:47.2441; stroke-opacity:1; 
stroke-linecap:round; stroke-linejoin:round;">
<path d="M61909 22381
L60295 22381
" />
<path d="M60295 22381
L60295 27421
" />
<path d="M60295 27421
L61909 27421
" />
<path d="M61909 27421
L61909 22381
" />
<path d="M61220 22381
L61220 22578
" />
<path d="M61220 22578
L61712 22578
" />
<path d="M61712 22578
L61712 27224
" />
<path d="M61712 27224
L61220 27224
" />
<path d="M61220 27224
L61220 27421
" />
<path d="M60885 22381
L60885 22775
" />
<path d="M60885 22775
L60295 22775
" />
<path d="M60885 27421
L60885 27027
" />
<path d="M60885 27027
L60295 27027
" />
<path d="M61161 22263
L60177 22263
" />
<path d="M60177 22263
L60177 23248
" />
<path d="M61909 28090
L60295 28090
" />
<path d="M60295 28090
L60295 34114
" />
<path d="M60295 34114
L61909 34114
" />
<path d="M61909 34114
L61909 28090
" />
<path d="M61220 28090
L61220 28287
" />
<path d="M61220 28287
L61712 28287
" />
<path d="M61712 28287
L61712 33917
" />
<path d="M61712 33917
L61220 33917
" />
<path d="M61220 33917
L61220 34114
" />
<path d="M60885 28090
L60885 28484
" />
<path d="M60885 28484
L60295 28484
" />
<path d="M60885 34114
L60885 33720
" />
<path d="M60885 33720
L60295 33720
" />
<path d="M61161 27972
L60177 27972
" />
<path d="M60177 27972
L60177 28956
" />
<path d="M49507 29665
L47893 29665
" />
<path d="M47893 29665
L47893 34704
" />
<path d="M47893 34704
L49507 34704
" />
<path d="M49507 34704
L49507 29665
" />
<path d="M48818 29665
L48818 29862
" />
<path d="M48818 29862
L49311 29862
" />
<path d="M49311 29862
L49311 34507
" />
<path d="M49311 34507
L48818 34507
" />
<path d="M48818 34507
L48818 34704
" />
<path d="M48484 29665
L48484 30059
" />
<path d="M48484 30059
L47893 30059
" />
<path d="M48484 34704
L48484 34311
" />
<path d="M48484 34311
L47893 34311
" />
<path d="M48759 29547
L47775 29547
" />
<path d="M47775 29547
L47775 30531
" />
</g>
<g style="fill:#000000; fill-opacity:0.0; 
stroke:#000000; stroke-width:59.0551; stroke-opacity:1; 
stroke-linecap:round; stroke-linejoin:round;">
<path d="M77893 24960
L77893 24803
" />
<path d="M79271 25393
L76515 25393
" />
<path d="M79271 24960
L76515 24960
" />
<path d="M79271 27795
L79271 24803
" />
<path d="M76515 24803
L76515 27795
" />
<path d="M76515 27795
L79271 27795
" />
<path d="M75098 24960
L75098 24803
" />
<path d="M76476 25393
L73720 25393
" />
<path d="M76476 24960
L73720 24960
" />
<path d="M76476 27795
L76476 24803
" />
<path d="M73720 24803
L73720 27795
" />
<path d="M73720 27795
L76476 27795
" />
<path d="M55980 36792
L55980 36398
L56111 36679
L56242 36398
L56242 36792
" />
<path d="M56636 36792
L56411 36792
" />
<path d="M56524 36792
L56524 36398
L56486 36454
L56449 36492
L56411 36511
" />
<path d="M45341 22894
L45341 23175
L45322 23232
L45284 23269
L45228 23288
L45191 23288
" />
<path d="M45734 23288
L45509 23288
" />
<path d="M45622 23288
L45622 22894
L45584 22950
L45547 22988
L45509 23007
" />
<path d="M62185 25032
L62467 25032
L62523 25051
L62560 25089
L62579 25145
L62579 25182
" />
<path d="M62223 24864
L62204 24845
L62185 24807
L62185 24714
L62204 24676
L62223 24657
L62260 24639
L62298 24639
L62354 24657
L62579 24882
L62579 24639
" />
<path d="M62185 31233
L62467 31233
L62523 31252
L62560 31289
L62579 31346
L62579 31383
" />
<path d="M62185 31083
L62185 30839
L62335 30971
L62335 30914
L62354 30877
L62373 30858
L62410 30839
L62504 30839
L62542 30858
L62560 30877
L62579 30914
L62579 31027
L62560 31064
L62542 31083
" />
<path d="M49784 32316
L50065 32316
L50121 32335
L50159 32372
L50178 32428
L50178 32466
" />
<path d="M49915 31960
L50178 31960
" />
<path d="M49765 32053
L50046 32147
L50046 31903
" />
<path d="M57152 25571
L57152 25853
L57133 25909
L57095 25946
L57039 25965
L57002 25965
" />
<path d="M57339 25965
L57339 25571
L57489 25571
L57527 25590
L57545 25609
L57564 25646
L57564 25703
L57545 25740
L57527 25759
L57489 25778
L57339 25778
" />
<path d="M57939 25965
L57714 25965
" />
<path d="M57827 25965
L57827 25571
L57789 25628
L57752 25665
L57714 25684
" />
<path d="M74868 22225
L74868 22506
L74850 22562
L74812 22600
L74756 22619
L74718 22619
" />
<path d="M75056 22619
L75056 22225
L75206 22225
L75243 22244
L75262 22262
L75281 22300
L75281 22356
L75262 22394
L75243 22412
L75206 22431
L75056 22431
" />
<path d="M75431 22262
L75449 22244
L75487 22225
L75581 22225
L75618 22244
L75637 22262
L75656 22300
L75656 22337
L75637 22394
L75412 22619
L75656 22619
" />
<path d="M64351 27887
L64632 27887
L64688 27905
L64726 27943
L64745 27999
L64745 28037
" />
<path d="M64745 27699
L64351 27699
L64351 27549
L64370 27512
L64388 27493
L64426 27474
L64482 27474
L64520 27493
L64538 27512
L64557 27549
L64557 27699
" />
<path d="M64351 27343
L64351 27099
L64501 27230
L64501 27174
L64520 27137
L64538 27118
L64576 27099
L64670 27099
L64707 27118
L64726 27137
L64745 27174
L64745 27287
L64726 27324
L64707 27343
" />
<path d="M79548 27493
L79829 27493
L79885 27512
L79923 27549
L79941 27605
L79941 27643
" />
<path d="M79548 27118
L79548 27305
L79735 27324
L79716 27305
L79698 27268
L79698 27174
L79716 27137
L79735 27118
L79773 27099
L79866 27099
L79904 27118
L79923 27137
L79941 27174
L79941 27268
L79923 27305
L79904 27324
" />
<path d="M73012 27493
L73293 27493
L73350 27512
L73387 27549
L73406 27605
L73406 27643
" />
<path d="M73012 27137
L73012 27212
L73031 27249
L73050 27268
L73106 27305
L73181 27324
L73331 27324
L73368 27305
L73387 27287
L73406 27249
L73406 27174
L73387 27137
L73368 27118
L73331 27099
L73237 27099
L73200 27118
L73181 27137
L73162 27174
L73162 27249
L73181 27287
L73200 27305
L73237 27324
" />
</g> 
</svg>
